<mxfile host="app.diagrams.net" agent="Mozilla/5.0 (Windows NT 10.0; Win64; x64) AppleWebKit/537.36 (KHTML, like Gecko) Chrome/139.0.0.0 Safari/537.36" version="28.1.2">
  <diagram name="Page-1" id="-H_mtQnk-PTXWXPvYvuk">
    <mxGraphModel dx="1489" dy="764" grid="1" gridSize="10" guides="1" tooltips="1" connect="1" arrows="1" fold="1" page="1" pageScale="1" pageWidth="1169" pageHeight="827" math="0" shadow="0">
      <root>
        <mxCell id="0" />
        <mxCell id="1" parent="0" />
        <mxCell id="kn0jL93G-Lw_tTjibuzb-102" style="edgeStyle=orthogonalEdgeStyle;rounded=0;orthogonalLoop=1;jettySize=auto;html=1;" edge="1" parent="1" source="kn0jL93G-Lw_tTjibuzb-90" target="kn0jL93G-Lw_tTjibuzb-59">
          <mxGeometry relative="1" as="geometry">
            <Array as="points">
              <mxPoint x="669" y="310" />
              <mxPoint x="855" y="310" />
            </Array>
          </mxGeometry>
        </mxCell>
        <mxCell id="kn0jL93G-Lw_tTjibuzb-105" style="edgeStyle=orthogonalEdgeStyle;rounded=0;orthogonalLoop=1;jettySize=auto;html=1;" edge="1" parent="1" source="kn0jL93G-Lw_tTjibuzb-90" target="kn0jL93G-Lw_tTjibuzb-74">
          <mxGeometry relative="1" as="geometry">
            <Array as="points">
              <mxPoint x="669" y="310" />
              <mxPoint x="500" y="310" />
            </Array>
          </mxGeometry>
        </mxCell>
        <mxCell id="kn0jL93G-Lw_tTjibuzb-90" value="" style="rounded=0;whiteSpace=wrap;html=1;" vertex="1" parent="1">
          <mxGeometry x="324" y="140" width="690" height="120" as="geometry" />
        </mxCell>
        <mxCell id="kn0jL93G-Lw_tTjibuzb-91" style="edgeStyle=orthogonalEdgeStyle;rounded=0;orthogonalLoop=1;jettySize=auto;html=1;exitX=0.5;exitY=1;exitDx=0;exitDy=0;" edge="1" parent="1" source="kn0jL93G-Lw_tTjibuzb-33" target="zA23MoTUsTF4_91t8viU-3">
          <mxGeometry relative="1" as="geometry" />
        </mxCell>
        <mxCell id="kn0jL93G-Lw_tTjibuzb-92" style="edgeStyle=orthogonalEdgeStyle;rounded=0;orthogonalLoop=1;jettySize=auto;html=1;entryX=0.5;entryY=0;entryDx=0;entryDy=0;" edge="1" parent="1" source="kn0jL93G-Lw_tTjibuzb-33" target="kn0jL93G-Lw_tTjibuzb-45">
          <mxGeometry relative="1" as="geometry" />
        </mxCell>
        <mxCell id="kn0jL93G-Lw_tTjibuzb-93" style="edgeStyle=orthogonalEdgeStyle;rounded=0;orthogonalLoop=1;jettySize=auto;html=1;entryX=0.5;entryY=0;entryDx=0;entryDy=0;exitX=0.5;exitY=1;exitDx=0;exitDy=0;" edge="1" parent="1" source="kn0jL93G-Lw_tTjibuzb-33" target="kn0jL93G-Lw_tTjibuzb-89">
          <mxGeometry relative="1" as="geometry" />
        </mxCell>
        <mxCell id="kn0jL93G-Lw_tTjibuzb-99" style="edgeStyle=orthogonalEdgeStyle;rounded=0;orthogonalLoop=1;jettySize=auto;html=1;entryX=0.5;entryY=0;entryDx=0;entryDy=0;" edge="1" parent="1" source="kn0jL93G-Lw_tTjibuzb-33" target="kn0jL93G-Lw_tTjibuzb-67">
          <mxGeometry relative="1" as="geometry" />
        </mxCell>
        <mxCell id="kn0jL93G-Lw_tTjibuzb-33" value="API Gateway" style="rounded=1;whiteSpace=wrap;html=1;fillColor=#fa6800;fontColor=#000000;strokeColor=#C73500;" vertex="1" parent="1">
          <mxGeometry x="609" y="20" width="120" height="60" as="geometry" />
        </mxCell>
        <mxCell id="kn0jL93G-Lw_tTjibuzb-67" value="Consul" style="rounded=1;whiteSpace=wrap;html=1;fillColor=#6a00ff;fontColor=#ffffff;strokeColor=#3700CC;" vertex="1" parent="1">
          <mxGeometry x="154" y="170" width="120" height="60" as="geometry" />
        </mxCell>
        <mxCell id="kn0jL93G-Lw_tTjibuzb-96" style="edgeStyle=orthogonalEdgeStyle;rounded=0;orthogonalLoop=1;jettySize=auto;html=1;entryX=0.5;entryY=1;entryDx=0;entryDy=0;exitX=0.5;exitY=1;exitDx=0;exitDy=0;" edge="1" parent="1" source="zA23MoTUsTF4_91t8viU-3" target="kn0jL93G-Lw_tTjibuzb-67">
          <mxGeometry relative="1" as="geometry">
            <Array as="points">
              <mxPoint x="414" y="300" />
              <mxPoint x="214" y="300" />
            </Array>
          </mxGeometry>
        </mxCell>
        <mxCell id="zA23MoTUsTF4_91t8viU-3" value="pymongo-api&lt;div&gt;instance 1&lt;/div&gt;" style="rounded=1;whiteSpace=wrap;html=1;movable=1;resizable=1;rotatable=1;deletable=1;editable=1;locked=0;connectable=1;" parent="1" vertex="1">
          <mxGeometry x="354" y="170" width="120" height="60" as="geometry" />
        </mxCell>
        <mxCell id="kn0jL93G-Lw_tTjibuzb-97" style="edgeStyle=orthogonalEdgeStyle;rounded=0;orthogonalLoop=1;jettySize=auto;html=1;entryX=0.5;entryY=1;entryDx=0;entryDy=0;exitX=0.5;exitY=1;exitDx=0;exitDy=0;" edge="1" parent="1" source="kn0jL93G-Lw_tTjibuzb-45" target="kn0jL93G-Lw_tTjibuzb-67">
          <mxGeometry relative="1" as="geometry">
            <Array as="points">
              <mxPoint x="584" y="300" />
              <mxPoint x="214" y="300" />
            </Array>
          </mxGeometry>
        </mxCell>
        <mxCell id="kn0jL93G-Lw_tTjibuzb-45" value="pymongo-api&lt;div&gt;instance 2&lt;/div&gt;" style="rounded=1;whiteSpace=wrap;html=1;movable=1;resizable=1;rotatable=1;deletable=1;editable=1;locked=0;connectable=1;" vertex="1" parent="1">
          <mxGeometry x="524" y="170" width="120" height="60" as="geometry" />
        </mxCell>
        <mxCell id="kn0jL93G-Lw_tTjibuzb-59" value="Redis" style="shape=cylinder3;whiteSpace=wrap;html=1;boundedLbl=1;backgroundOutline=1;size=15;fillColor=#e51400;fontColor=#ffffff;strokeColor=#B20000;movable=1;resizable=1;rotatable=1;deletable=1;editable=1;locked=0;connectable=1;" vertex="1" parent="1">
          <mxGeometry x="810" y="344" width="90" height="80" as="geometry" />
        </mxCell>
        <mxCell id="kn0jL93G-Lw_tTjibuzb-88" value="" style="group" vertex="1" connectable="0" parent="1">
          <mxGeometry x="300" y="330" width="400" height="490" as="geometry" />
        </mxCell>
        <mxCell id="kn0jL93G-Lw_tTjibuzb-71" value="" style="rounded=0;whiteSpace=wrap;html=1;movable=1;resizable=1;rotatable=1;deletable=1;editable=1;locked=0;connectable=1;" vertex="1" parent="kn0jL93G-Lw_tTjibuzb-88">
          <mxGeometry y="80" width="160" height="320" as="geometry" />
        </mxCell>
        <mxCell id="kn0jL93G-Lw_tTjibuzb-72" style="edgeStyle=orthogonalEdgeStyle;rounded=0;orthogonalLoop=1;jettySize=auto;html=1;entryX=0.5;entryY=0;entryDx=0;entryDy=0;movable=1;resizable=1;rotatable=1;deletable=1;editable=1;locked=0;connectable=1;" edge="1" parent="kn0jL93G-Lw_tTjibuzb-88" source="kn0jL93G-Lw_tTjibuzb-74" target="kn0jL93G-Lw_tTjibuzb-78">
          <mxGeometry relative="1" as="geometry" />
        </mxCell>
        <mxCell id="kn0jL93G-Lw_tTjibuzb-73" style="edgeStyle=orthogonalEdgeStyle;rounded=0;orthogonalLoop=1;jettySize=auto;html=1;entryX=0.5;entryY=0;entryDx=0;entryDy=0;movable=1;resizable=1;rotatable=1;deletable=1;editable=1;locked=0;connectable=1;" edge="1" parent="kn0jL93G-Lw_tTjibuzb-88" source="kn0jL93G-Lw_tTjibuzb-74" target="kn0jL93G-Lw_tTjibuzb-87">
          <mxGeometry relative="1" as="geometry" />
        </mxCell>
        <mxCell id="kn0jL93G-Lw_tTjibuzb-74" value="mongos router" style="shape=cylinder3;whiteSpace=wrap;html=1;boundedLbl=1;backgroundOutline=1;size=15;movable=1;resizable=1;rotatable=1;deletable=1;editable=1;locked=0;connectable=1;" vertex="1" parent="kn0jL93G-Lw_tTjibuzb-88">
          <mxGeometry x="170" width="60" height="80" as="geometry" />
        </mxCell>
        <mxCell id="kn0jL93G-Lw_tTjibuzb-75" style="edgeStyle=orthogonalEdgeStyle;rounded=0;orthogonalLoop=1;jettySize=auto;html=1;entryX=0;entryY=0.5;entryDx=0;entryDy=0;exitX=0.5;exitY=1;exitDx=0;exitDy=0;movable=1;resizable=1;rotatable=1;deletable=1;editable=1;locked=0;connectable=1;" edge="1" parent="kn0jL93G-Lw_tTjibuzb-88" source="kn0jL93G-Lw_tTjibuzb-71" target="kn0jL93G-Lw_tTjibuzb-78">
          <mxGeometry relative="1" as="geometry" />
        </mxCell>
        <mxCell id="kn0jL93G-Lw_tTjibuzb-76" value="Secondary 2" style="shape=cylinder3;whiteSpace=wrap;html=1;boundedLbl=1;backgroundOutline=1;size=15;fillColor=#008a00;fontColor=#ffffff;strokeColor=#005700;movable=1;resizable=1;rotatable=1;deletable=1;editable=1;locked=0;connectable=1;" vertex="1" parent="kn0jL93G-Lw_tTjibuzb-88">
          <mxGeometry x="40" y="310" width="80" height="80" as="geometry" />
        </mxCell>
        <mxCell id="kn0jL93G-Lw_tTjibuzb-77" style="edgeStyle=orthogonalEdgeStyle;rounded=0;orthogonalLoop=1;jettySize=auto;html=1;entryX=0.5;entryY=0;entryDx=0;entryDy=0;movable=1;resizable=1;rotatable=1;deletable=1;editable=1;locked=0;connectable=1;" edge="1" parent="kn0jL93G-Lw_tTjibuzb-88" source="kn0jL93G-Lw_tTjibuzb-74" target="kn0jL93G-Lw_tTjibuzb-71">
          <mxGeometry relative="1" as="geometry" />
        </mxCell>
        <mxCell id="kn0jL93G-Lw_tTjibuzb-78" value="config server" style="rounded=1;whiteSpace=wrap;html=1;movable=1;resizable=1;rotatable=1;deletable=1;editable=1;locked=0;connectable=1;" vertex="1" parent="kn0jL93G-Lw_tTjibuzb-88">
          <mxGeometry x="140" y="430" width="120" height="60" as="geometry" />
        </mxCell>
        <mxCell id="kn0jL93G-Lw_tTjibuzb-79" value="Secondary 1" style="shape=cylinder3;whiteSpace=wrap;html=1;boundedLbl=1;backgroundOutline=1;size=15;fillColor=#008a00;fontColor=#ffffff;strokeColor=#005700;movable=1;resizable=1;rotatable=1;deletable=1;editable=1;locked=0;connectable=1;" vertex="1" parent="kn0jL93G-Lw_tTjibuzb-88">
          <mxGeometry x="40" y="210" width="80" height="80" as="geometry" />
        </mxCell>
        <mxCell id="kn0jL93G-Lw_tTjibuzb-80" value="Primary" style="shape=cylinder3;whiteSpace=wrap;html=1;boundedLbl=1;backgroundOutline=1;size=15;fillColor=#1ba1e2;fontColor=#ffffff;strokeColor=#006EAF;movable=1;resizable=1;rotatable=1;deletable=1;editable=1;locked=0;connectable=1;" vertex="1" parent="kn0jL93G-Lw_tTjibuzb-88">
          <mxGeometry x="40" y="110" width="80" height="80" as="geometry" />
        </mxCell>
        <mxCell id="kn0jL93G-Lw_tTjibuzb-81" value="Shard 1" style="text;html=1;align=center;verticalAlign=middle;whiteSpace=wrap;rounded=0;movable=1;resizable=1;rotatable=1;deletable=1;editable=1;locked=0;connectable=1;" vertex="1" parent="kn0jL93G-Lw_tTjibuzb-88">
          <mxGeometry x="50" y="80" width="60" height="30" as="geometry" />
        </mxCell>
        <mxCell id="kn0jL93G-Lw_tTjibuzb-82" style="edgeStyle=orthogonalEdgeStyle;rounded=0;orthogonalLoop=1;jettySize=auto;html=1;entryX=1;entryY=0.5;entryDx=0;entryDy=0;movable=1;resizable=1;rotatable=1;deletable=1;editable=1;locked=0;connectable=1;" edge="1" parent="kn0jL93G-Lw_tTjibuzb-88" source="kn0jL93G-Lw_tTjibuzb-83" target="kn0jL93G-Lw_tTjibuzb-78">
          <mxGeometry relative="1" as="geometry" />
        </mxCell>
        <mxCell id="kn0jL93G-Lw_tTjibuzb-83" value="" style="rounded=0;whiteSpace=wrap;html=1;movable=1;resizable=1;rotatable=1;deletable=1;editable=1;locked=0;connectable=1;" vertex="1" parent="kn0jL93G-Lw_tTjibuzb-88">
          <mxGeometry x="240" y="80" width="160" height="320" as="geometry" />
        </mxCell>
        <mxCell id="kn0jL93G-Lw_tTjibuzb-84" value="Secondary 2" style="shape=cylinder3;whiteSpace=wrap;html=1;boundedLbl=1;backgroundOutline=1;size=15;fillColor=#008a00;fontColor=#ffffff;strokeColor=#005700;movable=1;resizable=1;rotatable=1;deletable=1;editable=1;locked=0;connectable=1;" vertex="1" parent="kn0jL93G-Lw_tTjibuzb-88">
          <mxGeometry x="280" y="310" width="80" height="80" as="geometry" />
        </mxCell>
        <mxCell id="kn0jL93G-Lw_tTjibuzb-85" value="Secondary 1" style="shape=cylinder3;whiteSpace=wrap;html=1;boundedLbl=1;backgroundOutline=1;size=15;fillColor=#008a00;fontColor=#ffffff;strokeColor=#005700;movable=1;resizable=1;rotatable=1;deletable=1;editable=1;locked=0;connectable=1;" vertex="1" parent="kn0jL93G-Lw_tTjibuzb-88">
          <mxGeometry x="280" y="210" width="80" height="80" as="geometry" />
        </mxCell>
        <mxCell id="kn0jL93G-Lw_tTjibuzb-86" value="Primary" style="shape=cylinder3;whiteSpace=wrap;html=1;boundedLbl=1;backgroundOutline=1;size=15;fillColor=#1ba1e2;fontColor=#ffffff;strokeColor=#006EAF;movable=1;resizable=1;rotatable=1;deletable=1;editable=1;locked=0;connectable=1;" vertex="1" parent="kn0jL93G-Lw_tTjibuzb-88">
          <mxGeometry x="280" y="110" width="80" height="80" as="geometry" />
        </mxCell>
        <mxCell id="kn0jL93G-Lw_tTjibuzb-87" value="Shard 1" style="text;html=1;align=center;verticalAlign=middle;whiteSpace=wrap;rounded=0;movable=1;resizable=1;rotatable=1;deletable=1;editable=1;locked=0;connectable=1;" vertex="1" parent="kn0jL93G-Lw_tTjibuzb-88">
          <mxGeometry x="290" y="80" width="60" height="30" as="geometry" />
        </mxCell>
        <mxCell id="kn0jL93G-Lw_tTjibuzb-104" style="edgeStyle=orthogonalEdgeStyle;rounded=0;orthogonalLoop=1;jettySize=auto;html=1;entryX=0.5;entryY=1;entryDx=0;entryDy=0;" edge="1" parent="1" source="kn0jL93G-Lw_tTjibuzb-89" target="kn0jL93G-Lw_tTjibuzb-67">
          <mxGeometry relative="1" as="geometry">
            <Array as="points">
              <mxPoint x="923" y="300" />
              <mxPoint x="214" y="300" />
            </Array>
          </mxGeometry>
        </mxCell>
        <mxCell id="kn0jL93G-Lw_tTjibuzb-89" value="pymongo-api&lt;div&gt;instance N&lt;/div&gt;" style="rounded=1;whiteSpace=wrap;html=1;movable=1;resizable=1;rotatable=1;deletable=1;editable=1;locked=0;connectable=1;" vertex="1" parent="1">
          <mxGeometry x="863" y="170" width="120" height="60" as="geometry" />
        </mxCell>
      </root>
    </mxGraphModel>
  </diagram>
</mxfile>
